<?xml version="1.0" encoding="UTF-8"?>
<svg xmlns="http://www.w3.org/2000/svg" xmlns:xlink="http://www.w3.org/1999/xlink" version="1.1" width="512" height="512" x="0" y="0" viewBox="0 0 512 512" style="enable-background:new 0 0 512 512" xml:space="preserve">
  <g>
    <path d="M242.591 221.962a56.545 56.545 0 1 0 56.544 56.546 56.61 56.61 0 0 0-56.544-56.546zm0 97.089a40.545 40.545 0 1 1 40.544-40.543 40.59 40.59 0 0 1-40.544 40.543zm259.593-39.537c-.017-.03-.029-.061-.045-.091-.008-.013-.017-.025-.024-.038a14.358 14.358 0 0 0-5.314-5.3l-52.327-30.215a14.252 14.252 0 0 0-14.4 0l-2.112 1.219V223a65.838 65.838 0 0 0 30.429-17.038 63.647 63.647 0 0 0 19.449-45.7v-17.498a8.255 8.255 0 0 0-.048-.866c0-.033-.012-.066-.016-.1a7.934 7.934 0 0 0-.164-.9 7.657 7.657 0 0 0-.056-.217 7.947 7.947 0 0 0-.3-.9l-.024-.066a7.862 7.862 0 0 0-.455-.92c-.034-.059-.071-.117-.106-.175a7.862 7.862 0 0 0-.507-.74c-.024-.031-.042-.066-.066-.1L395.329 36.192a8 8 0 0 0-6.262-3.022h-.046l-216.584 1.252h-.037l-71.5.413a8 8 0 0 0-6.05 2.819L9.9 137.583l-.025.034a8.054 8.054 0 0 0-.609.831c-.038.06-.073.121-.11.181a8.015 8.015 0 0 0-.43.809c-.018.04-.04.078-.057.118a7.9 7.9 0 0 0-.351.971c-.017.058-.029.117-.045.175a7.7 7.7 0 0 0-.174.836c-.013.079-.027.158-.037.237a8.064 8.064 0 0 0-.067.989v17.488a64.708 64.708 0 0 0 56.625 64.112V413.7H48.148a32.566 32.566 0 0 0 0 65.132h388.887a32.566 32.566 0 0 0 0-65.132h-9.071v-25.266l2.112 1.219a14.251 14.251 0 0 0 14.4 0l52.324-30.212a14.248 14.248 0 0 0 7.2-12.467v-60.423a14.373 14.373 0 0 0-1.816-7.037zm-64.91-21.325 42.536 24.558-40.465 22.637-44.146-22.9zm-50.725 87.859V296.02l44.8 23.241-1.444 51.82zm25.835-137.171a48.773 48.773 0 0 1-48.624-48.164c0-.054-.008-.107-.01-.161 0-.1.008-.2.008-.3v-9.488h98.084v9.488c0 26.358-22.649 48.625-49.458 48.625zM304.066 49.662c6.921 33.854 18.29 62.379 33.893 85.1H145.386c15.492-22.562 26.815-50.84 33.749-84.38zm-166.814 110.59v-9.488h97.253v9.488a48.626 48.626 0 0 1-97.25.526c0-.064-.009-.125-.011-.189.001-.113.008-.224.008-.337zm113.253 0v-9.488h97.253v9.488a48.627 48.627 0 0 1-97.249.659c0-.078-.011-.153-.014-.231.005-.143.01-.28.01-.428zm202.756-25.488h-95.374c-17.359-21.5-29.956-50.1-37.5-85.2l64.841-.375zm-348.6-83.95 58.1-.336c-7.567 34.677-20.09 62.975-37.3 84.286H33.3zM24 160.252v-9.488h97.252v9.488a48.626 48.626 0 0 1-97.252 0zm429.6 286.012a16.585 16.585 0 0 1-16.566 16.566H48.148a16.566 16.566 0 0 1 0-33.132h388.887a16.585 16.585 0 0 1 16.565 16.566zM319.544 413.7h-21.288v-3.22a8 8 0 0 0-16 0v3.22h-79.33v-3.22a8 8 0 0 0-16 0v3.22h-21.287v-4.374a52.643 52.643 0 0 1 52.584-52.584h48.737a52.643 52.643 0 0 1 52.584 52.584zm92.42 0h-76.42v-4.374a68.662 68.662 0 0 0-68.584-68.586h-48.737a68.661 68.661 0 0 0-68.584 68.584v4.376H80.625V224.365a64.748 64.748 0 0 0 48.641-33.03 64.571 64.571 0 0 0 113.267-.024 64.547 64.547 0 0 0 113.241.019 64.808 64.808 0 0 0 56.19 33.537v29.46l-34.216 19.755a14.392 14.392 0 0 0-4.989 4.774c-.045.068-.087.14-.13.21-.1.159-.192.32-.282.483-.013.024-.028.045-.041.069l-.02.045a14.368 14.368 0 0 0-1.737 6.888v60.423a14.248 14.248 0 0 0 7.2 12.467l34.215 19.759zm33.969-43.362 1.424-51.1L488 296.5v49.55z" fill="#fff" opacity="1" data-original="#fff"/>
  </g>
</svg>
